<svg xmlns="http://www.w3.org/2000/svg" width="174.814" height="63.638" viewBox="0 0 174.814 63.638" fill="none">
  <path d="M 36.823 62.642 C 25.821 58.79 17.421 51.326 12.408 40.947 L 11.628 39.333 L 9.962 38.556 C 5.221 36.346 1.894 32.492 0.517 27.617 C 0.024 25.871 -0.161 22.25 0.159 20.584 C 1.408 14.071 6.322 8.905 12.805 7.289 C 14.487 6.87 16.175 6.741 16.175 7.031 C 16.175 7.117 16.099 7.272 16.006 7.375 C 15.733 7.677 14.471 10.962 13.933 12.772 C 12.841 16.444 12.023 21.559 12.025 24.696 C 12.029 29.915 13.471 36.344 15.575 40.527 C 17.175 43.709 19.94 47.554 22.674 50.398 C 26.6 54.484 32.869 58.42 37.912 59.966 C 39.051 60.315 40.099 60.692 40.239 60.803 C 40.619 61.104 40.482 63.58 40.083 63.637 C 39.92 63.66 38.453 63.212 36.823 62.642 Z M 43.54 47.966 C 39.809 47.208 37.17 46.121 34.003 44.037 C 28.405 40.354 24.627 34.325 23.666 27.541 C 23.523 26.528 23.477 24.861 23.547 23.215 C 23.72 19.191 24.344 16.722 26.061 13.264 C 28.979 7.39 34.586 2.845 41.311 0.902 C 45.8 -0.395 51.818 -0.284 56.284 1.177 C 59.371 2.187 63.407 4.46 65.501 6.369 L 66.46 7.243 L 64.37 9.333 L 62.28 11.424 L 60.565 10.137 C 54.733 5.76 46.981 4.732 40.6 7.49 C 37.302 8.916 33.714 12.011 31.966 14.939 C 27.271 22.803 29.26 32.953 36.552 38.339 C 41.483 41.981 48.136 43.127 54.195 41.379 C 56.412 40.74 59.363 39.238 60.997 37.919 L 62.253 36.906 L 64.319 38.946 L 66.386 40.987 L 65.238 42.039 C 62.925 44.155 59.647 46.076 56.482 47.168 C 52.944 48.389 47.327 48.735 43.54 47.966 Z M 83.423 34.978 C 81.81 34.47 80.433 33.242 79.733 31.691 C 78.32 28.559 78.771 24.227 80.741 21.994 C 83.035 19.394 88.24 19.19 90.667 21.605 C 92.021 22.952 92.034 23.256 90.768 23.976 C 89.685 24.593 89.28 24.703 89.28 24.38 C 89.28 24.275 89.015 23.889 88.69 23.521 C 87.065 21.679 83.555 22.253 82.496 24.535 C 82.135 25.31 82.069 25.808 82.072 27.715 C 82.076 30.097 82.351 31.041 83.29 31.886 C 84.277 32.774 86.288 33.091 87.567 32.559 C 88.309 32.251 89.225 31.247 89.401 30.551 C 89.556 29.935 89.866 29.951 91.072 30.636 L 92.059 31.197 L 91.406 32.454 C 90.924 33.383 90.51 33.875 89.823 34.334 C 88.191 35.424 85.648 35.68 83.423 34.978 Z M 95.2 34.941 C 93.642 34.159 92.968 32.013 93.796 30.465 C 94.261 29.596 95.327 28.99 97.085 28.599 C 99.332 28.098 99.76 27.916 99.967 27.375 C 100.11 27 100.078 26.755 99.838 26.39 C 99.54 25.938 99.424 25.909 98.202 25.978 C 97.106 26.041 96.729 26.162 95.939 26.704 C 94.878 27.432 94.728 27.393 94.104 26.229 L 93.726 25.523 L 94.22 25.116 C 95.759 23.847 98.445 23.294 100.365 23.85 C 102.419 24.444 102.725 25.141 102.889 29.583 L 103.012 32.926 L 103.506 32.926 C 104.079 32.926 104.263 33.235 104.283 34.232 C 104.299 35.055 104.095 35.187 102.808 35.187 C 101.675 35.187 100.978 34.852 100.602 34.129 L 100.296 33.54 L 99.777 34.162 C 98.742 35.401 96.782 35.735 95.2 34.941 Z M 99.136 32.9 C 99.389 32.724 99.72 32.284 99.872 31.923 C 100.344 30.798 100.161 28.864 99.659 29.673 C 99.594 29.776 98.992 29.968 98.32 30.1 C 96.37 30.482 95.679 31.531 96.605 32.703 C 96.932 33.116 97.183 33.221 97.845 33.221 C 98.302 33.221 98.883 33.076 99.136 32.9 Z M 107.739 35.022 C 106.29 34.347 106.272 34.241 106.272 26.26 L 106.272 19.261 L 107.655 19.261 L 109.038 19.261 L 109.038 25.906 C 109.038 30.813 109.1 32.614 109.275 32.788 C 109.406 32.918 109.75 33.024 110.04 33.024 C 110.526 33.024 110.579 33.104 110.702 34.03 C 110.776 34.583 110.787 35.085 110.727 35.144 C 110.417 35.453 108.496 35.374 107.739 35.022 Z M 114.387 35.039 C 114.015 34.85 113.525 34.446 113.3 34.14 C 112.907 33.607 112.889 33.311 112.835 26.423 L 112.778 19.261 L 114.168 19.261 L 115.559 19.261 L 115.559 25.833 C 115.559 32.954 115.569 33.024 116.635 33.024 C 116.986 33.024 117.118 33.164 117.213 33.638 C 117.414 34.639 117.356 35.137 117.024 35.264 C 116.419 35.495 115.057 35.379 114.387 35.039 Z M 138.713 35.104 C 137.064 34.569 135.986 33.526 135.403 31.9 C 135.035 30.873 135.048 28.19 135.426 27.085 C 135.836 25.889 136.885 24.707 138.034 24.147 C 139.34 23.509 141.947 23.499 143.146 24.126 C 144.771 24.976 145.455 26.289 145.478 28.6 L 145.492 29.976 L 141.689 30.03 C 139.597 30.059 137.886 30.148 137.886 30.226 C 137.887 30.305 137.978 30.696 138.09 31.094 C 138.636 33.053 141.417 33.669 142.866 32.154 L 143.491 31.5 L 144.442 32.082 C 144.965 32.402 145.393 32.742 145.393 32.837 C 145.393 33.196 144.115 34.44 143.337 34.838 C 142.31 35.364 139.935 35.501 138.713 35.104 Z M 142.824 27.863 C 142.823 27.201 142.107 26.161 141.491 25.924 C 140.135 25.404 138.437 26.292 138.161 27.666 L 138.033 28.305 L 140.429 28.305 C 142.782 28.305 142.825 28.297 142.824 27.863 Z M 149.467 35.18 C 148.206 34.804 147.369 33.511 147.369 31.939 C 147.369 29.888 148.469 29.054 152.16 28.31 C 153.478 28.044 153.889 27.714 153.889 26.922 C 153.889 26.146 153.324 25.882 151.884 25.986 C 150.982 26.051 150.525 26.209 149.831 26.696 C 149.34 27.04 148.874 27.319 148.796 27.316 C 148.717 27.312 148.414 26.917 148.121 26.436 L 147.589 25.563 L 148.319 24.961 C 149.387 24.079 151.447 23.504 153.015 23.65 C 154.749 23.811 155.798 24.381 156.271 25.417 C 156.59 26.116 156.647 26.721 156.651 29.412 C 156.656 32.779 156.769 33.195 157.62 32.973 C 157.939 32.89 158.013 33.021 158.126 33.866 C 158.287 35.07 158.159 35.18 156.591 35.184 C 155.595 35.186 155.366 35.113 154.894 34.644 C 154.594 34.346 154.304 33.97 154.249 33.809 C 154.175 33.59 154.006 33.685 153.584 34.181 C 152.652 35.279 151.079 35.66 149.467 35.18 Z M 153.293 32.664 C 153.717 32.242 153.886 31.842 153.991 31.008 C 154.152 29.724 154.03 29.396 153.497 29.68 C 153.295 29.788 152.663 29.975 152.094 30.097 C 150.848 30.363 150.135 30.995 150.135 31.835 C 150.135 32.726 150.741 33.221 151.83 33.221 C 152.559 33.221 152.842 33.113 153.293 32.664 Z M 161.602 35.05 C 161.225 34.855 160.736 34.386 160.515 34.007 C 160.135 33.356 160.11 32.941 160.052 26.29 L 159.991 19.261 L 161.485 19.261 L 162.978 19.261 L 162.978 25.906 C 162.978 30.813 163.04 32.614 163.215 32.788 C 163.345 32.918 163.69 33.024 163.98 33.024 C 164.473 33.024 164.515 33.094 164.611 34.056 C 164.667 34.624 164.676 35.127 164.632 35.175 C 164.587 35.222 164.041 35.293 163.418 35.333 C 162.6 35.385 162.097 35.307 161.602 35.05 Z M 168.609 35.207 C 167.511 34.914 166.636 34.452 166.102 33.884 L 165.571 33.319 L 166.356 32.483 C 166.788 32.024 167.213 31.648 167.301 31.648 C 167.389 31.648 167.63 31.837 167.837 32.068 C 168.38 32.675 169.341 33.024 170.466 33.024 C 171.554 33.024 172.067 32.683 172.067 31.959 C 172.067 31.286 171.539 30.944 169.775 30.474 C 167.866 29.966 167.061 29.513 166.533 28.651 C 166.059 27.876 166.011 26.369 166.435 25.553 C 167.199 24.084 169.421 23.32 171.702 23.742 C 172.88 23.96 174.438 24.768 174.438 25.161 C 174.438 25.268 174.122 25.703 173.735 26.128 L 173.033 26.902 L 172.359 26.447 C 170.999 25.529 169.037 25.649 168.781 26.667 C 168.592 27.415 169.174 27.83 171.064 28.294 C 173.044 28.78 173.784 29.176 174.405 30.085 C 174.793 30.653 174.856 30.955 174.794 31.951 C 174.659 34.132 173.344 35.207 170.684 35.309 C 169.869 35.34 168.935 35.295 168.609 35.207 Z M 119.708 27.617 L 119.708 20.047 L 122.523 20.051 C 127.189 20.058 129.257 20.555 130.74 22.028 C 132.275 23.554 133.006 26.31 132.603 29.058 C 132.322 30.976 131.788 32.21 130.826 33.168 C 129.244 34.741 127.481 35.187 122.833 35.187 L 119.708 35.187 L 119.708 27.617 Z M 127.323 32.261 C 128.297 31.821 129.108 30.899 129.381 29.921 C 129.66 28.92 129.639 26.264 129.345 25.285 C 129.011 24.176 127.894 23.114 126.765 22.831 C 126.264 22.706 125.139 22.603 124.263 22.603 L 122.671 22.603 L 122.671 27.617 L 122.671 32.631 L 124.598 32.626 C 126.038 32.623 126.726 32.531 127.323 32.261 Z" fill="currentColor" fill-rule="nonzero"></path>
</svg>