<svg xmlns="http://www.w3.org/2000/svg" width="170.970" height="74" viewBox="0 0 170.970 74" fill="none">
  <path d="M 45.86 73.976 C 42.68 73.912 42.658 73.909 42.255 73.399 C 41.915 72.969 41.849 72.603 41.849 71.155 C 41.849 69.244 42.04 68.505 42.578 68.34 C 42.919 68.236 47.86 68.146 50.502 68.196 C 51.541 68.216 51.826 68.299 52.231 68.702 C 52.674 69.143 52.716 69.338 52.716 70.951 C 52.716 72.899 52.525 73.641 51.986 73.791 C 51.331 73.973 49.091 74.041 45.86 73.976 Z M 45.01 66.035 C 30.374 64.386 18.503 54.181 15.301 40.496 C 14.441 36.818 14.256 31.692 14.851 28.011 C 16.39 18.494 21.785 10.278 29.916 5.067 C 32.456 3.439 36.946 1.598 40.311 0.804 C 44.449 -0.172 51.244 -0.274 55.272 0.578 C 61.056 1.802 67.69 5.109 71.585 8.709 L 72.968 9.987 L 71.684 11.297 C 70.977 12.017 70.072 12.868 69.671 13.187 L 68.943 13.769 L 67.399 12.532 C 62.74 8.802 57.689 6.643 51.827 5.876 C 49.433 5.562 44.865 5.757 42.402 6.277 C 31.728 8.531 23.85 16.09 21.06 26.755 C 20.442 29.118 20.423 29.312 20.425 33.221 C 20.427 36.92 20.469 37.415 20.94 39.228 C 22.107 43.719 23.744 46.819 26.876 50.465 C 31.325 55.643 37.106 58.824 44.18 59.985 C 46.254 60.325 47.205 60.378 49.653 60.288 C 56.746 60.027 62.197 57.837 67.498 53.116 L 68.943 51.829 L 70.955 53.845 L 72.968 55.861 L 71.507 57.216 C 67.294 61.125 61.139 64.299 55.569 65.435 C 51.748 66.215 48.328 66.409 45.01 66.035 Z M 25.82 61.977 C 25.574 61.665 25.581 61.658 25.894 61.903 C 26.084 62.051 26.24 62.206 26.24 62.247 C 26.24 62.409 26.078 62.304 25.82 61.977 Z M 24.542 60.896 L 24.165 60.453 L 24.61 60.828 C 25.028 61.18 25.144 61.338 24.986 61.338 C 24.949 61.338 24.749 61.139 24.542 60.896 Z M 19.102 59.814 C 18.856 59.502 18.863 59.495 19.176 59.74 C 19.367 59.888 19.522 60.043 19.522 60.084 C 19.522 60.246 19.36 60.142 19.102 59.814 Z M 21.973 58.339 L 21.597 57.897 L 22.041 58.272 C 22.459 58.624 22.576 58.782 22.418 58.782 C 22.38 58.782 22.18 58.583 21.973 58.339 Z M 48.517 57.275 C 48.653 57.221 48.875 57.221 49.011 57.275 C 49.147 57.33 49.036 57.374 48.764 57.374 C 48.493 57.374 48.381 57.33 48.517 57.275 Z M 20.683 56.865 C 20.437 56.553 20.444 56.546 20.757 56.791 C 20.947 56.939 21.103 57.094 21.103 57.135 C 21.103 57.296 20.941 57.192 20.683 56.865 Z M 31.549 50.966 C 31.304 50.654 31.311 50.647 31.624 50.892 C 31.814 51.04 31.97 51.195 31.97 51.236 C 31.97 51.398 31.808 51.294 31.549 50.966 Z M 64.567 47.82 L 62.694 45.903 L 64.62 47.767 C 65.68 48.792 66.546 49.655 66.546 49.684 C 66.546 49.827 66.307 49.601 64.567 47.82 Z M 29.179 48.607 C 28.933 48.295 28.94 48.288 29.253 48.533 C 29.443 48.681 29.599 48.836 29.599 48.877 C 29.599 49.038 29.437 48.934 29.179 48.607 Z M 4.784 43.79 L 4.407 43.347 L 4.852 43.722 C 5.27 44.074 5.386 44.232 5.228 44.232 C 5.191 44.232 4.991 44.033 4.784 43.79 Z M 153.284 43.568 C 153.284 43.527 153.44 43.372 153.63 43.224 C 153.944 42.979 153.951 42.986 153.705 43.298 C 153.447 43.626 153.284 43.73 153.284 43.568 Z M 106.349 34.794 C 106.349 31.063 106.376 29.537 106.408 31.403 C 106.441 33.268 106.441 36.321 106.408 38.186 C 106.376 40.051 106.349 38.525 106.349 34.794 Z M 166.522 41.208 C 166.522 41.168 166.678 41.013 166.868 40.864 C 167.182 40.62 167.189 40.627 166.943 40.939 C 166.685 41.266 166.522 41.37 166.522 41.208 Z M 154.065 39.174 C 154.011 38.717 154.042 38.419 154.134 38.51 C 154.226 38.602 154.27 38.975 154.232 39.341 C 154.165 39.988 154.161 39.984 154.065 39.174 Z M 135.153 38.333 C 135.153 37.955 135.194 37.8 135.243 37.989 C 135.293 38.179 135.293 38.488 135.243 38.678 C 135.194 38.867 135.153 38.712 135.153 38.333 Z M 12.441 37.547 C 12.441 37.277 12.485 37.166 12.54 37.301 C 12.595 37.436 12.595 37.658 12.54 37.793 C 12.485 37.928 12.441 37.817 12.441 37.547 Z M 79.01 37.432 C 79.019 37.203 79.066 37.157 79.129 37.313 C 79.186 37.455 79.179 37.625 79.113 37.69 C 79.048 37.756 79.001 37.64 79.01 37.432 Z M 102.917 35.859 C 102.926 35.63 102.973 35.584 103.036 35.741 C 103.093 35.882 103.086 36.052 103.021 36.117 C 102.955 36.183 102.908 36.067 102.917 35.859 Z M 166.143 35.859 C 166.152 35.63 166.199 35.584 166.262 35.741 C 166.319 35.882 166.312 36.052 166.247 36.117 C 166.181 36.183 166.134 36.067 166.143 35.859 Z M 12.25 35.286 C 12.254 34.961 12.299 34.852 12.349 35.044 C 12.399 35.235 12.395 35.501 12.341 35.634 C 12.287 35.767 12.246 35.61 12.25 35.286 Z M 79.01 35.466 C 79.019 35.237 79.066 35.19 79.129 35.347 C 79.186 35.489 79.179 35.659 79.113 35.724 C 79.048 35.789 79.001 35.673 79.01 35.466 Z M 170.33 34.658 C 170.522 34.608 170.789 34.611 170.922 34.665 C 171.056 34.719 170.899 34.76 170.573 34.756 C 170.247 34.752 170.137 34.708 170.33 34.658 Z M 0 32.337 C 0.004 32.012 0.049 31.903 0.099 32.095 C 0.149 32.286 0.145 32.551 0.091 32.684 C 0.037 32.817 -0.004 32.661 0 32.337 Z M 12.25 31.747 C 12.254 31.422 12.299 31.313 12.349 31.505 C 12.399 31.696 12.395 31.961 12.341 32.095 C 12.287 32.228 12.246 32.071 12.25 31.747 Z M 12.425 29.961 C 12.434 29.732 12.481 29.685 12.544 29.842 C 12.601 29.984 12.594 30.153 12.529 30.219 C 12.463 30.284 12.416 30.168 12.425 29.961 Z M 126.179 28.958 C 126.321 28.901 126.492 28.908 126.558 28.974 C 126.623 29.039 126.507 29.085 126.298 29.077 C 126.068 29.067 126.021 29.021 126.179 28.958 Z M 12.623 27.798 C 12.632 27.569 12.679 27.522 12.742 27.679 C 12.799 27.821 12.792 27.991 12.726 28.056 C 12.661 28.121 12.614 28.005 12.623 27.798 Z M 4.506 20.969 C 4.506 20.936 4.795 20.648 5.148 20.33 L 5.79 19.753 L 5.21 20.392 C 4.669 20.988 4.506 21.121 4.506 20.969 Z M 29.401 17.221 C 29.401 17.18 29.557 17.025 29.747 16.877 C 30.06 16.632 30.067 16.639 29.822 16.951 C 29.564 17.279 29.401 17.383 29.401 17.221 Z M 15.422 15.587 C 15.613 15.537 15.924 15.537 16.114 15.587 C 16.304 15.636 16.149 15.677 15.768 15.677 C 15.388 15.677 15.232 15.636 15.422 15.587 Z M 47.727 14.793 C 48.08 14.75 48.658 14.75 49.011 14.793 C 49.364 14.837 49.075 14.873 48.369 14.873 C 47.663 14.873 47.374 14.837 47.727 14.793 Z" fill="currentColor" fill-rule="nonzero"></path>
</svg>